<svg xmlns="http://www.w3.org/2000/svg" xmlns:xlink="http://www.w3.org/1999/xlink" width="910" height="910" viewBox="0 0 910 910">
  <defs>
    <clipPath id="clip-roleta-5">
      <rect width="910" height="910"/>
    </clipPath>
  </defs>
  <g id="roleta-5" clip-path="url(#clip-roleta-5)">
    <g id="Grupo_194" data-name="Grupo 194" transform="translate(80.847 80.847)">
      <g id="Retângulo_100" data-name="Retângulo 100" transform="translate(724.153 400.153) rotate(-90)" fill="none" stroke="#a67536" stroke-width="2">
        <rect width="52" height="24" rx="11" stroke="none"/>
        <rect x="1" y="1" width="50" height="22" rx="10" fill="none"/>
      </g>
      <g id="Retângulo_104" data-name="Retângulo 104" transform="translate(0.153 400.153) rotate(-90)" fill="none" stroke="#a67536" stroke-width="2">
        <rect width="52" height="24" rx="11" stroke="none"/>
        <rect x="1" y="1" width="50" height="22" rx="10" fill="none"/>
      </g>
      <g id="Retângulo_100-2" data-name="Retângulo 100" transform="translate(602.097 639.322) rotate(-45)" fill="none" stroke="#a67536" stroke-width="2">
        <rect width="52.645" height="24.442" rx="11" stroke="none"/>
        <rect x="1" y="1" width="50.645" height="22.442" rx="10" fill="none"/>
      </g>
      <g id="Retângulo_104-2" data-name="Retângulo 104" transform="translate(90.153 127.153) rotate(-45)" fill="none" stroke="#a67536" stroke-width="2">
        <rect width="53" height="25" rx="11" stroke="none"/>
        <rect x="1" y="1" width="51" height="23" rx="10" fill="none"/>
      </g>
      <g id="Retângulo_100-3" data-name="Retângulo 100" transform="translate(107.531 602.097) rotate(45)" fill="none" stroke="#a67536" stroke-width="2">
        <rect width="52.645" height="24.442" rx="11" stroke="none"/>
        <rect x="1" y="1" width="50.645" height="22.442" rx="10" fill="none"/>
      </g>
      <g id="Retângulo_104-3" data-name="Retângulo 104" transform="translate(619.38 90.248) rotate(45)" fill="none" stroke="#a67536" stroke-width="2">
        <rect width="52.645" height="24.442" rx="11" stroke="none"/>
        <rect x="1" y="1" width="50.645" height="22.442" rx="10" fill="none"/>
      </g>
      <g id="Retângulo_106" data-name="Retângulo 106" transform="translate(400.153 24.153) rotate(180)" fill="none" stroke="#a67536" stroke-width="2">
        <rect width="52" height="24" rx="11" stroke="none"/>
        <rect x="1" y="1" width="50" height="22" rx="10" fill="none"/>
      </g>
      <g id="Retângulo_105" data-name="Retângulo 105" transform="translate(400.153 748.153) rotate(180)" fill="none" stroke="#a67536" stroke-width="2">
        <rect width="52" height="24" rx="11" stroke="none"/>
        <rect x="1" y="1" width="50" height="22" rx="10" fill="none"/>
      </g>
    </g>
  </g>
</svg>
