<svg xmlns="http://www.w3.org/2000/svg" xmlns:xlink="http://www.w3.org/1999/xlink" width="508.5" height="969.47" viewBox="0 0 508.5 969.47">
  <defs>
    <clipPath id="clip-tabela">
      <rect width="508.5" height="969.47"/>
    </clipPath>
  </defs>
  <g id="tabela" clip-path="url(#clip-tabela)">
    <g id="Retângulo_253" data-name="Retângulo 253" transform="translate(127 129)" stroke="#fff" stroke-width="1">
      <rect width="128" height="65" stroke="none"/>
      <rect x="0.5" y="0.5" width="127" height="64" fill="none"/>
    </g>
    <g id="Retângulo_254" data-name="Retângulo 254" transform="translate(127 258)" stroke="#fff" stroke-width="1">
      <rect width="128" height="65" stroke="none"/>
      <rect x="0.5" y="0.5" width="127" height="64" fill="none"/>
    </g>
    <g id="Retângulo_255" data-name="Retângulo 255" transform="translate(127 388)" stroke="#fff" stroke-width="1">
      <rect width="128" height="65" stroke="none"/>
      <rect x="0.5" y="0.5" width="127" height="64" fill="none"/>
    </g>
    <g id="Retângulo_256" data-name="Retângulo 256" transform="translate(127 517)" stroke="#fff" stroke-width="1">
      <rect width="128" height="65" stroke="none"/>
      <rect x="0.5" y="0.5" width="127" height="64" fill="none"/>
    </g>
    <g id="Retângulo_257" data-name="Retângulo 257" transform="translate(127 646)" stroke="#fff" stroke-width="1">
      <rect width="128" height="65" stroke="none"/>
      <rect x="0.5" y="0.5" width="127" height="64" fill="none"/>
    </g>
    <g id="Retângulo_258" data-name="Retângulo 258" transform="translate(127 775)" stroke="#fff" stroke-width="1">
      <rect width="128" height="65" stroke="none"/>
      <rect x="0.5" y="0.5" width="127" height="64" fill="none"/>
    </g>
    <g id="Retângulo_259" data-name="Retângulo 259" transform="translate(127 840)" stroke="#fff" stroke-width="1">
      <rect width="128" height="65" stroke="none"/>
      <rect x="0.5" y="0.5" width="127" height="64" fill="none"/>
    </g>
    <g id="Retângulo_260" data-name="Retângulo 260" transform="translate(254 194)" stroke="#fff" stroke-width="1">
      <rect width="128" height="65" stroke="none"/>
      <rect x="0.5" y="0.5" width="127" height="64" fill="none"/>
    </g>
    <g id="Retângulo_261" data-name="Retângulo 261" transform="translate(254 323)" stroke="#fff" stroke-width="1">
      <rect width="128" height="65" stroke="none"/>
      <rect x="0.5" y="0.5" width="127" height="64" fill="none"/>
    </g>
    <g id="Retângulo_262" data-name="Retângulo 262" transform="translate(254 452)" stroke="#fff" stroke-width="1">
      <rect width="128" height="65" stroke="none"/>
      <rect x="0.5" y="0.5" width="127" height="64" fill="none"/>
    </g>
    <g id="Retângulo_263" data-name="Retângulo 263" transform="translate(254 581)" stroke="#fff" stroke-width="1">
      <rect width="128" height="65" stroke="none"/>
      <rect x="0.5" y="0.5" width="127" height="64" fill="none"/>
    </g>
    <g id="Retângulo_264" data-name="Retângulo 264" transform="translate(254 711)" stroke="#fff" stroke-width="1">
      <rect width="128" height="65" stroke="none"/>
      <rect x="0.5" y="0.5" width="127" height="64" fill="none"/>
    </g>
    <g id="Retângulo_265" data-name="Retângulo 265" transform="translate(381 129)" stroke="#fff" stroke-width="1">
      <rect width="128" height="65" stroke="none"/>
      <rect x="0.5" y="0.5" width="127" height="64" fill="none"/>
    </g>
    <g id="Retângulo_267" data-name="Retângulo 267" transform="translate(381 258)" stroke="#fff" stroke-width="1">
      <rect width="128" height="65" stroke="none"/>
      <rect x="0.5" y="0.5" width="127" height="64" fill="none"/>
    </g>
    <g id="Retângulo_268" data-name="Retângulo 268" transform="translate(381 388)" stroke="#fff" stroke-width="1">
      <rect width="128" height="65" stroke="none"/>
      <rect x="0.5" y="0.5" width="127" height="64" fill="none"/>
    </g>
    <g id="Retângulo_269" data-name="Retângulo 269" transform="translate(381 517)" stroke="#fff" stroke-width="1">
      <rect width="128" height="65" stroke="none"/>
      <rect x="0.5" y="0.5" width="127" height="64" fill="none"/>
    </g>
    <g id="Retângulo_270" data-name="Retângulo 270" transform="translate(381 646)" stroke="#fff" stroke-width="1">
      <rect width="128" height="65" stroke="none"/>
      <rect x="0.5" y="0.5" width="127" height="64" fill="none"/>
    </g>
    <g id="Retângulo_271" data-name="Retângulo 271" transform="translate(381 775)" stroke="#fff" stroke-width="1">
      <rect width="128" height="65" stroke="none"/>
      <rect x="0.5" y="0.5" width="127" height="64" fill="none"/>
    </g>
    <g id="Retângulo_272" data-name="Retângulo 272" transform="translate(381 840)" stroke="#fff" stroke-width="1">
      <rect width="128" height="65" stroke="none"/>
      <rect x="0.5" y="0.5" width="127" height="64" fill="none"/>
    </g>
    <g id="Retângulo_273" data-name="Retângulo 273" transform="translate(254 129)" fill="#7d0602" stroke="#fff" stroke-width="1">
      <rect width="128" height="65" stroke="none"/>
      <rect x="0.5" y="0.5" width="127" height="64" fill="none"/>
    </g>
    <g id="Retângulo_274" data-name="Retângulo 274" transform="translate(254 258)" fill="#7d0602" stroke="#fff" stroke-width="1">
      <rect width="128" height="65" stroke="none"/>
      <rect x="0.5" y="0.5" width="127" height="64" fill="none"/>
    </g>
    <g id="Retângulo_275" data-name="Retângulo 275" transform="translate(254 388)" fill="#7d0602" stroke="#fff" stroke-width="1">
      <rect width="128" height="65" stroke="none"/>
      <rect x="0.5" y="0.5" width="127" height="64" fill="none"/>
    </g>
    <g id="Retângulo_276" data-name="Retângulo 276" transform="translate(254 517)" fill="#7d0602" stroke="#fff" stroke-width="1">
      <rect width="128" height="65" stroke="none"/>
      <rect x="0.5" y="0.5" width="127" height="64" fill="none"/>
    </g>
    <g id="Retângulo_277" data-name="Retângulo 277" transform="translate(254 646)" fill="#7d0602" stroke="#fff" stroke-width="1">
      <rect width="128" height="65" stroke="none"/>
      <rect x="0.5" y="0.5" width="127" height="64" fill="none"/>
    </g>
    <g id="Retângulo_278" data-name="Retângulo 278" transform="translate(254 775)" fill="#7d0602" stroke="#fff" stroke-width="1">
      <rect width="128" height="65" stroke="none"/>
      <rect x="0.5" y="0.5" width="127" height="64" fill="none"/>
    </g>
    <g id="Retângulo_279" data-name="Retângulo 279" transform="translate(254 840)" fill="#7d0602" stroke="#fff" stroke-width="1">
      <rect width="128" height="65" stroke="none"/>
      <rect x="0.5" y="0.5" width="127" height="64" fill="none"/>
    </g>
    <g id="Retângulo_280" data-name="Retângulo 280" transform="translate(127 194)" fill="#7d0602" stroke="#fff" stroke-width="1">
      <rect width="128" height="65" stroke="none"/>
      <rect x="0.5" y="0.5" width="127" height="64" fill="none"/>
    </g>
    <g id="Retângulo_281" data-name="Retângulo 281" transform="translate(127 323)" fill="#7d0602" stroke="#fff" stroke-width="1">
      <rect width="128" height="65" stroke="none"/>
      <rect x="0.5" y="0.5" width="127" height="64" fill="none"/>
    </g>
    <g id="Retângulo_282" data-name="Retângulo 282" transform="translate(127 452)" fill="#7d0602" stroke="#fff" stroke-width="1">
      <rect width="128" height="65" stroke="none"/>
      <rect x="0.5" y="0.5" width="127" height="64" fill="none"/>
    </g>
    <g id="Retângulo_283" data-name="Retângulo 283" transform="translate(127 581)" fill="#7d0602" stroke="#fff" stroke-width="1">
      <rect width="128" height="65" stroke="none"/>
      <rect x="0.5" y="0.5" width="127" height="64" fill="none"/>
    </g>
    <g id="Retângulo_284" data-name="Retângulo 284" transform="translate(127 711)" fill="#7d0602" stroke="#fff" stroke-width="1">
      <rect width="128" height="65" stroke="none"/>
      <rect x="0.5" y="0.5" width="127" height="64" fill="none"/>
    </g>
    <g id="Retângulo_285" data-name="Retângulo 285" transform="translate(381 194)" fill="#7d0602" stroke="#fff" stroke-width="1">
      <rect width="128" height="65" stroke="none"/>
      <rect x="0.5" y="0.5" width="127" height="64" fill="none"/>
    </g>
    <g id="Retângulo_286" data-name="Retângulo 286" transform="translate(381 323)" fill="#7d0602" stroke="#fff" stroke-width="1">
      <rect width="128" height="65" stroke="none"/>
      <rect x="0.5" y="0.5" width="127" height="64" fill="none"/>
    </g>
    <g id="Retângulo_287" data-name="Retângulo 287" transform="translate(381 452)" fill="#7d0602" stroke="#fff" stroke-width="1">
      <rect width="128" height="65" stroke="none"/>
      <rect x="0.5" y="0.5" width="127" height="64" fill="none"/>
    </g>
    <g id="Retângulo_288" data-name="Retângulo 288" transform="translate(381 581)" fill="#7d0602" stroke="#fff" stroke-width="1">
      <rect width="128" height="65" stroke="none"/>
      <rect x="0.5" y="0.5" width="127" height="64" fill="none"/>
    </g>
    <g id="Retângulo_289" data-name="Retângulo 289" transform="translate(381 711)" fill="#7d0602" stroke="#fff" stroke-width="1">
      <rect width="128" height="65" stroke="none"/>
      <rect x="0.5" y="0.5" width="127" height="64" fill="none"/>
    </g>
    
    <text id="_2TO1" data-name="2TO1" transform="translate(290 948)" fill="#fff" font-size="20" font-family="SegoeUI-Bold, Segoe UI" font-weight="700" letter-spacing="0.104em"><tspan x="0" y="0">2TO1</tspan></text>
    <text id="_2TO1-2" data-name="2TO1" transform="translate(162 948)" fill="#fff" font-size="20" font-family="SegoeUI-Bold, Segoe UI" font-weight="700" letter-spacing="0.104em"><tspan x="0" y="0">2TO1</tspan></text>
    <text id="_2TO1-3" data-name="2TO1" transform="translate(418 948)" fill="#fff" font-size="20" font-family="SegoeUI-Bold, Segoe UI" font-weight="700" letter-spacing="0.104em"><tspan x="0" y="0">2TO1</tspan></text>
    <text id="_1" data-name="1" transform="translate(185 168)" fill="rgba(255,255,255,0.5)" font-size="26" font-family="SegoeUI-Bold, Segoe UI" font-weight="700" letter-spacing="0.115em"><tspan x="0" y="0">1</tspan></text>
    <text id="_7" data-name="7" transform="translate(185 298)" fill="rgba(255,255,255,0.5)" font-size="26" font-family="SegoeUI-Bold, Segoe UI" font-weight="700" letter-spacing="0.115em"><tspan x="0" y="0">7</tspan></text>
    <text id="_13" data-name="13" transform="translate(192 428)" fill="rgba(255,255,255,0.5)" font-size="26" font-family="SegoeUI-Bold, Segoe UI" font-weight="700" letter-spacing="0.115em"><tspan x="-16.45" y="0">13</tspan></text>
    <text id="_19" data-name="19" transform="translate(192 559)" fill="rgba(255,255,255,0.5)" font-size="26" font-family="SegoeUI-Bold, Segoe UI" font-weight="700" letter-spacing="0.115em"><tspan x="-16.45" y="0">19</tspan></text>
    <text id="_25" data-name="25" transform="translate(192 689)" fill="rgba(255,255,255,0.5)" font-size="26" font-family="SegoeUI-Bold, Segoe UI" font-weight="700" letter-spacing="0.115em"><tspan x="-16.45" y="0">25</tspan></text>
    <text id="_31" data-name="31" transform="translate(192 819)" fill="rgba(255,255,255,0.5)" font-size="26" font-family="SegoeUI-Bold, Segoe UI" font-weight="700" letter-spacing="0.115em"><tspan x="-16.45" y="0">31</tspan></text>
    <text id="_4" data-name="4" transform="translate(185 233)" fill="rgba(255,255,255,0.5)" font-size="26" font-family="SegoeUI-Bold, Segoe UI" font-weight="700" letter-spacing="0.115em"><tspan x="0" y="0">4</tspan></text>
    <text id="_10" data-name="10" transform="translate(192 363)" fill="rgba(255,255,255,0.5)" font-size="26" font-family="SegoeUI-Bold, Segoe UI" font-weight="700" letter-spacing="0.115em"><tspan x="-16.45" y="0">10</tspan></text>
    <text id="_16" data-name="16" transform="translate(192 493)" fill="rgba(255,255,255,0.5)" font-size="26" font-family="SegoeUI-Bold, Segoe UI" font-weight="700" letter-spacing="0.115em"><tspan x="-16.45" y="0">16</tspan></text>
    <text id="_22" data-name="22" transform="translate(192 624)" fill="rgba(255,255,255,0.5)" font-size="26" font-family="SegoeUI-Bold, Segoe UI" font-weight="700" letter-spacing="0.115em"><tspan x="-16.45" y="0">22</tspan></text>
    <text id="_28" data-name="28" transform="translate(192 754)" fill="rgba(255,255,255,0.5)" font-size="26" font-family="SegoeUI-Bold, Segoe UI" font-weight="700" letter-spacing="0.115em"><tspan x="-16.45" y="0">28</tspan></text>
    <text id="_34" data-name="34" transform="translate(192 884)" fill="rgba(255,255,255,0.5)" font-size="26" font-family="SegoeUI-Bold, Segoe UI" font-weight="700" letter-spacing="0.115em"><tspan x="-16.45" y="0">34</tspan></text>
    <text id="_2" data-name="2" transform="translate(310 168)" fill="rgba(255,255,255,0.5)" font-size="26" font-family="SegoeUI-Bold, Segoe UI" font-weight="700" letter-spacing="0.115em"><tspan x="0" y="0">2</tspan></text>
    <text id="_8" data-name="8" transform="translate(313 298)" fill="rgba(255,255,255,0.5)" font-size="26" font-family="SegoeUI-Bold, Segoe UI" font-weight="700" letter-spacing="0.115em"><tspan x="0" y="0">8</tspan></text>
    <text id="_14" data-name="14" transform="translate(304 428)" fill="rgba(255,255,255,0.5)" font-size="26" font-family="SegoeUI-Bold, Segoe UI" font-weight="700" letter-spacing="0.115em"><tspan x="0" y="0">14</tspan></text>
    <text id="_20" data-name="20" transform="translate(320 559)" fill="rgba(255,255,255,0.5)" font-size="26" font-family="SegoeUI-Bold, Segoe UI" font-weight="700" letter-spacing="0.115em"><tspan x="-16.45" y="0">20</tspan></text>
    <text id="_26" data-name="26" transform="translate(320 689)" fill="rgba(255,255,255,0.5)" font-size="26" font-family="SegoeUI-Bold, Segoe UI" font-weight="700" letter-spacing="0.115em"><tspan x="-16.45" y="0">26</tspan></text>
    <text id="_32" data-name="32" transform="translate(320 819)" fill="rgba(255,255,255,0.5)" font-size="26" font-family="SegoeUI-Bold, Segoe UI" font-weight="700" letter-spacing="0.115em"><tspan x="-16.45" y="0">32</tspan></text>
    <text id="_5" data-name="5" transform="translate(313 233)" fill="rgba(255,255,255,0.5)" font-size="26" font-family="SegoeUI-Bold, Segoe UI" font-weight="700" letter-spacing="0.115em"><tspan x="0" y="0">5</tspan></text>
    <text id="_11" data-name="11" transform="translate(304 363)" fill="rgba(255,255,255,0.5)" font-size="26" font-family="SegoeUI-Bold, Segoe UI" font-weight="700" letter-spacing="0.115em"><tspan x="0" y="0">11</tspan></text>
    <text id="_17" data-name="17" transform="translate(304 493)" fill="rgba(255,255,255,0.5)" font-size="26" font-family="SegoeUI-Bold, Segoe UI" font-weight="700" letter-spacing="0.115em"><tspan x="0" y="0">17</tspan></text>
    <text id="_23" data-name="23" transform="translate(320 624)" fill="rgba(255,255,255,0.5)" font-size="26" font-family="SegoeUI-Bold, Segoe UI" font-weight="700" letter-spacing="0.115em"><tspan x="-16.45" y="0">23</tspan></text>
    <text id="_29" data-name="29" transform="translate(320 754)" fill="rgba(255,255,255,0.5)" font-size="26" font-family="SegoeUI-Bold, Segoe UI" font-weight="700" letter-spacing="0.115em"><tspan x="-16.45" y="0">29</tspan></text>
    <text id="_35" data-name="35" transform="translate(320 884)" fill="rgba(255,255,255,0.5)" font-size="26" font-family="SegoeUI-Bold, Segoe UI" font-weight="700" letter-spacing="0.115em"><tspan x="-16.45" y="0">35</tspan></text>
    <text id="_3" data-name="3" transform="translate(434 172)" fill="rgba(255,255,255,0.5)" font-size="26" font-family="SegoeUI-Bold, Segoe UI" font-weight="700" letter-spacing="0.115em"><tspan x="0" y="0">3</tspan></text>
    <text id="_9" data-name="9" transform="translate(434 301)" fill="rgba(255,255,255,0.5)" font-size="26" font-family="SegoeUI-Bold, Segoe UI" font-weight="700" letter-spacing="0.115em"><tspan x="0" y="0">9</tspan></text>
    <text id="_15" data-name="15" transform="translate(425 431)" fill="rgba(255,255,255,0.5)" font-size="26" font-family="SegoeUI-Bold, Segoe UI" font-weight="700" letter-spacing="0.115em"><tspan x="0" y="0">15</tspan></text>
    <text id="_21" data-name="21" transform="translate(441 560)" fill="rgba(255,255,255,0.5)" font-size="26" font-family="SegoeUI-Bold, Segoe UI" font-weight="700" letter-spacing="0.115em"><tspan x="-16.45" y="0">21</tspan></text>
    <text id="_27" data-name="27" transform="translate(441 690)" fill="rgba(255,255,255,0.5)" font-size="26" font-family="SegoeUI-Bold, Segoe UI" font-weight="700" letter-spacing="0.115em"><tspan x="-16.45" y="0">27</tspan></text>
    <text id="_33" data-name="33" transform="translate(441 819)" fill="rgba(255,255,255,0.5)" font-size="26" font-family="SegoeUI-Bold, Segoe UI" font-weight="700" letter-spacing="0.115em"><tspan x="-16.45" y="0">33</tspan></text>
    <text id="_6" data-name="6" transform="translate(434 237)" fill="rgba(255,255,255,0.5)" font-size="26" font-family="SegoeUI-Bold, Segoe UI" font-weight="700" letter-spacing="0.115em"><tspan x="0" y="0">6</tspan></text>
    <text id="_12" data-name="12" transform="translate(425 366)" fill="rgba(255,255,255,0.5)" font-size="26" font-family="SegoeUI-Bold, Segoe UI" font-weight="700" letter-spacing="0.115em"><tspan x="0" y="0">12</tspan></text>
    <text id="_18" data-name="18" transform="translate(425 496)" fill="rgba(255,255,255,0.5)" font-size="26" font-family="SegoeUI-Bold, Segoe UI" font-weight="700" letter-spacing="0.115em"><tspan x="0" y="0">18</tspan></text>
    <text id="_24" data-name="24" transform="translate(441 625)" fill="rgba(255,255,255,0.5)" font-size="26" font-family="SegoeUI-Bold, Segoe UI" font-weight="700" letter-spacing="0.115em"><tspan x="-16.45" y="0">24</tspan></text>
    <text id="_30" data-name="30" transform="translate(441 755)" fill="rgba(255,255,255,0.5)" font-size="26" font-family="SegoeUI-Bold, Segoe UI" font-weight="700" letter-spacing="0.115em"><tspan x="-16.45" y="0">30</tspan></text>
    <text id="_36" data-name="36" transform="translate(441 884)" fill="rgba(255,255,255,0.5)" font-size="26" font-family="SegoeUI-Bold, Segoe UI" font-weight="700" letter-spacing="0.115em"><tspan x="-16.45" y="0">36</tspan></text>
    <g id="Retângulo_251" data-name="Retângulo 251" transform="translate(62.5 516.6) rotate(90)" stroke="#fff" stroke-width="1">
      <rect width="130" height="62" stroke="none"/>
      <rect x="0.5" y="0.5" width="129" height="61" fill="none"/>
    </g>
    <g id="Retângulo_250" data-name="Retângulo 250" transform="translate(62.5 387.4) rotate(90)" fill="#7d0602" stroke="#fff" stroke-width="1">
      <rect width="130" height="62" stroke="none"/>
      <rect x="0.5" y="0.5" width="129" height="61" fill="none"/>
    </g>
    <g id="Retângulo_249"  data-name="Retângulo 249" transform="translate(127.5 129) rotate(90)" fill="#036488" stroke="#fff" stroke-width="1"><rect width="260" height="66" stroke="none"/><rect x="0.5" y="0.5" width="259" height="65" fill="none"/></g>
    <g id="Retângulo_251-2" data-name="Retângulo 251" transform="translate(62.5 258.2) rotate(90)" fill="#036488" stroke="#fff" stroke-width="1"><rect width="130" height="62" stroke="none"/><rect x="0.5" y="0.5" width="129" height="61" fill="none"/></g>
    <g id="Retângulo_249-2" data-name="Retângulo 249" transform="translate(127.5 387) rotate(90)" fill="#036488" stroke="#fff" stroke-width="1"><rect width="260" height="66" stroke="none"/><rect x="0.5" y="0.5" width="259" height="65" fill="none"/></g>
    <g id="Retângulo_249-3" data-name="Retângulo 249" transform="translate(127.5 645) rotate(90)" fill="#036488" stroke="#fff" stroke-width="1"><rect width="260" height="66" stroke="none"/><rect x="0.5" y="0.5" width="259" height="65" fill="none"/></g>
    <g id="Retângulo_250-2" data-name="Retângulo 250" transform="translate(62.5 645.8) rotate(90)" fill="#036488" stroke="#fff" stroke-width="1"><rect width="130" height="62" stroke="none"/><rect x="0.5" y="0.5" width="129" height="61" fill="none"/></g>
    <g id="Retângulo_251-3" data-name="Retângulo 251" transform="translate(62.5 775) rotate(90)" fill="#036488" stroke="#fff" stroke-width="1"><rect width="130" height="62" stroke="none"/><rect x="0.5" y="0.5" width="129" height="61" fill="none"/></g>
    <g id="Retângulo_250-3" data-name="Retângulo 250" transform="translate(62.5 129) rotate(90)" fill="#036488" stroke="#fff" stroke-width="1"><rect width="130" height="62" stroke="none"/><rect x="0.5" y="0.5" width="129" height="61" fill="none"/></g>
    
    <g id="Grupo_280" data-name="Grupo 280" transform="translate(-418 -69)">
      <g id="Grupo_277" data-name="Grupo 277" transform="translate(-331)">
        <text id="_1st12" data-name="1st12" transform="translate(834.5 279.5) rotate(90)" fill="#fff" font-size="24" font-family="SegoeUI-Bold, Segoe UI" font-weight="700" letter-spacing="0.104em" opacity="0.7"><tspan x="0" y="0">1st12</tspan></text>
        <text id="_1TO18" data-name="1TO18" transform="translate(771.5 230.5) rotate(90)" fill="#fff" font-size="19" font-family="SegoeUI-Bold, Segoe UI" font-weight="700" letter-spacing="0.104em" opacity="0.7"><tspan x="0" y="0">1TO18</tspan></text>
        <text id="EVEN" transform="translate(771.5 355.5) rotate(90)" fill="#fff" font-size="19" font-family="SegoeUI-Bold, Segoe UI" font-weight="700" letter-spacing="0.104em" opacity="0.7"><tspan x="0" y="0">EVEN</tspan></text>
        <text id="_2nd12" data-name="2nd12" transform="translate(833.5 547.5) rotate(90)" fill="#fff" font-size="26" font-family="SegoeUI-Bold, Segoe UI" font-weight="700" letter-spacing="0.104em" opacity="0.7"><tspan x="0" y="0">2nd12</tspan></text>
        <text id="RED" transform="translate(770.5 509.5) rotate(90)" fill="#fff" font-size="20" font-family="SegoeUI-Bold, Segoe UI" font-weight="700" letter-spacing="0.104em" opacity="0.7"><tspan x="0" y="0">RED</tspan></text>
        <text id="BLACK" transform="translate(770.5 625.5) rotate(90)" fill="#fff" font-size="20" font-family="SegoeUI-Bold, Segoe UI" font-weight="700" letter-spacing="0.104em" opacity="0.7"><tspan x="0" y="0">BLACK</tspan></text>
        <text id="_3rd12" data-name="3rd12" transform="translate(833.5 800) rotate(90)" fill="#fff" font-size="26" font-family="SegoeUI-Bold, Segoe UI" font-weight="700" letter-spacing="0.104em" opacity="0.7"><tspan x="0" y="0">3rd12</tspan></text>
        <text id="ODD" transform="translate(770.5 749) rotate(90)" fill="#fff" font-size="20" font-family="SegoeUI-Bold, Segoe UI" font-weight="700" letter-spacing="0.104em" opacity="0.7"><tspan x="0" y="0">ODD</tspan></text>
        <text id="_19TO36" data-name="19TO36" transform="translate(770.5 864) rotate(90)" fill="#fff" font-size="20" font-family="SegoeUI-Bold, Segoe UI" font-weight="700" letter-spacing="0.104em" opacity="0.7"><tspan x="0" y="0">19TO36</tspan></text>
      </g>
    </g>
    <path id="Caminho_83" data-name="Caminho 83" d="M971.513-2799.521l191.912-64.946L1353-2800v64.447L971.513-2734.5Z" transform="translate(-844 2864)" fill="none" stroke="#fff" stroke-width="1"/>
    <g id="Retângulo_266" data-name="Retângulo 266" transform="translate(253 65)" fill="#942194" stroke="#fff" stroke-width="1"><rect width="128" height="65" stroke="none"/><rect x="0.5" y="0.5" width="127" height="64" fill="none"/></g>
    <text id="_0" data-name="0" transform="translate(310 105)" fill="rgba(255,255,255,0.5)" font-size="26" font-family="SegoeUI-Bold, Segoe UI" font-weight="700" letter-spacing="0.115em"><tspan x="0" y="0">0</tspan></text>
  </g>
</svg>
