<svg xmlns="http://www.w3.org/2000/svg" xmlns:xlink="http://www.w3.org/1999/xlink" width="484" height="484" viewBox="0 0 484 484">
  <defs>
    <clipPath id="clip-numeros">
      <rect width="484" height="484"/>
    </clipPath>
  </defs>
  <g id="numeros" clip-path="url(#clip-numeros)">
    <g id="Grupo_242" data-name="Grupo 242" transform="translate(-51 -18)">
      <g id="Grupo_241" data-name="Grupo 241" transform="translate(-1564 -1533)">
        <g id="Grupo_193" data-name="Grupo 193" transform="translate(1619 993)">
          <path id="Subtração_36" data-name="Subtração 36" d="M-1994.86,196.032l-29.382-44.906A164.14,164.14,0,0,1-1999.976,138l21.354,49.271a109.533,109.533,0,0,0-16.237,8.761h0Z" transform="translate(2173 512.263)" fill="#7d0602"/>
          <path id="Subtração_39" data-name="Subtração 39" d="M-1943.95,191.861l-4.23-53.309c4.471-.366,8.984-.552,13.415-.552,4.343,0,8.71.173,12.979.513l-4.359,53.34c-2.921-.234-5.9-.353-8.855-.353-2.98,0-5.991.121-8.949.36Z" transform="translate(2173 499)" fill="#56a608"/>
          <path id="Subtração_1" data-name="Subtração 1" d="M-1908.176,194.57h0a109.651,109.651,0,0,0-18.034-2.962l4.38-53.608h.006a165.223,165.223,0,0,1,19.9,2.8c2.285.466,4.653,1.007,7.036,1.61l-13.292,52.16Z" transform="translate(2173 499.24)" fill="#7d0602"/>
          <path id="Subtração_37" data-name="Subtração 37" d="M-1978.622,195.731l-21.354-49.271c.538-.237,1.065-.461,1.649-.709A162.378,162.378,0,0,1-1975.333,138l13.278,52.065a109.078,109.078,0,0,0-16.566,5.666Z" transform="translate(2173 503.803)"/>
          <path id="Subtração_38" data-name="Subtração 38" d="M-1962.056,194.59l-13.278-52.065c2.473-.636,5.042-1.227,7.635-1.758A163.56,163.56,0,0,1-1948.225,138l4.253,53.585a109.549,109.549,0,0,0-18.083,3.005Z" transform="translate(2173 499.278)" fill="#7d0602"/>
          <path id="Subtração_31" data-name="Subtração 31" d="M-1992.224,229.269-2045,220.389c.286-1.737.62-3.54.994-5.36a162.441,162.441,0,0,1,5.577-20.37l50.628,17.445a109.092,109.092,0,0,0-4.423,17.162Z" transform="translate(2122.319 552)"/>
          <path id="Subtração_28" data-name="Subtração 28" d="M-2038.435,300.626h0a163.539,163.539,0,0,1-5.386-19.816c-.435-2.137-.832-4.307-1.179-6.451l52.769-8.779a109.085,109.085,0,0,0,4.393,17.668l-50.6,17.381Z" transform="translate(2122.134 552)" fill="#7d0602"/>
          <path id="Subtração_29" data-name="Subtração 29" d="M-2042.866,274.357v0h0A165.289,165.289,0,0,1-2045,247.919v-.273h53.5c0,.118,0,.236,0,.355a110.693,110.693,0,0,0,1.4,17.577Z" transform="translate(2120 552)"/>
          <path id="Subtração_30" data-name="Subtração 30" d="M-1991.5,247.646H-2045a164.473,164.473,0,0,1,2.319-27.257l52.776,8.879a110.572,110.572,0,0,0-1.6,18.376Z" transform="translate(2120 552)" fill="#7d0602"/>
          <path id="Subtração_35" data-name="Subtração 35" d="M-2008.619,193.551l-36.183-39.57a164.826,164.826,0,0,1,18.753-14.774c.591-.4,1.2-.808,1.807-1.207l29.382,44.906a110.282,110.282,0,0,0-13.758,10.644Z" transform="translate(2173 525.389)"/>
          <path id="Subtração_32" data-name="Subtração 32" d="M-1994.371,212.105-2045,194.66c1.181-3.418,2.505-6.87,3.935-10.261a163.875,163.875,0,0,1,7.286-15.025l47.017,25.679a109.212,109.212,0,0,0-7.61,17.052Z" transform="translate(2128.891 552)" fill="#7d0602"/>
          <path id="Subtração_26" data-name="Subtração 26" d="M-2030.345,347.777v0h0c-2.2-2.834-4.3-5.733-6.244-8.616-3.014-4.46-5.843-9.136-8.411-13.9l47.048-25.454a109.952,109.952,0,0,0,9.838,15.143Z" transform="translate(2139.458 552)" fill="#7d0602"/>
          <path id="Subtração_27" data-name="Subtração 27" d="M-2034.242,325.257v0h0c-2.437-4.525-4.668-9.174-6.631-13.817-1.521-3.6-2.91-7.236-4.127-10.806v-.005l50.6-17.381a109.244,109.244,0,0,0,7.209,16.559Z" transform="translate(2128.7 552)"/>
          <path id="Subtração_33" data-name="Subtração 33" d="M-1997.983,195.053-2045,169.374c2.37-4.313,4.979-8.583,7.755-12.695,2.073-3.067,4.306-6.136,6.636-9.121l42.234,32.986a109.975,109.975,0,0,0-9.609,14.507Z" transform="translate(2140.112 552)"/>
          <path id="Subtração_34" data-name="Subtração 34" d="M-2002.767,191.175-2045,158.189a164.284,164.284,0,0,1,13.29-15.031c1.741-1.742,3.558-3.477,5.4-5.158l36.183,39.571a110.46,110.46,0,0,0-12.642,13.6Z" transform="translate(2154.505 541.37)" fill="#7d0602"/>
          <path id="Subtração_4" data-name="Subtração 4" d="M-1861,194.154h0a110.281,110.281,0,0,0-14.266-11.074L-1845.784,138c.663.43,1.366.9,2.216,1.469a163.564,163.564,0,0,1,19.081,15.074L-1861,194.153Z" transform="translate(2173 525.133)"/>
          <path id="Subtração_11" data-name="Subtração 11" d="M-1773.783,274.57l-53.128-8.942c.074-.457.149-.942.224-1.445l.006-.042.006-.042.01-.067.012-.085.026-.178,0-.031,0-.023A110.783,110.783,0,0,0-1825.5,248.3V248c0-.072,0-.145,0-.217v-.138h53.884v.273a165.518,165.518,0,0,1-2.166,26.651h0Z" transform="translate(2173 552)"/>
          <path id="Subtração_12" data-name="Subtração 12" d="M-1780.458,301.024h0l-50.916-17.545a109.121,109.121,0,0,0,4.464-17.851l53.128,8.942c-.343,2.083-.73,4.182-1.147,6.239a162.018,162.018,0,0,1-5.527,20.215Z" transform="translate(2173 552)" fill="#7d0602"/>
          <path id="Subtração_13" data-name="Subtração 13" d="M-1791.4,325.852l-47.241-25.8a109.21,109.21,0,0,0,7.262-16.57l50.917,17.545h0v.005c-1.2,3.483-2.536,6.985-3.984,10.408-2.064,4.879-4.4,9.728-6.953,14.414Z" transform="translate(2173 552)"/>
          <path id="Subtração_14" data-name="Subtração 14" d="M-1806.269,348.47l-42.393-33.112a109.92,109.92,0,0,0,10.025-15.31l47.241,25.8c-2.476,4.551-5.2,9.027-8.088,13.307-2.128,3.148-4.41,6.28-6.784,9.311Z" transform="translate(2173 552)" fill="#7d0602"/>
          <path id="Subtração_5" data-name="Subtração 5" d="M-1848.748,190.857v0h0A110.56,110.56,0,0,0-1861,177.61l36.516-39.61c1.705,1.56,3.411,3.193,5.071,4.853A165.372,165.372,0,0,1-1806.2,157.78Z" transform="translate(2173 541.675)" fill="#7d0602"/>
          <path id="Subtração_6" data-name="Subtração 6" d="M-1838.838,195.582v0h0a110.109,110.109,0,0,0-9.91-15.048l42.55-33.077c2.348,3,4.606,6.108,6.713,9.224,2.9,4.3,5.609,8.755,8.057,13.252Z" transform="translate(2173 552)"/>
          <path id="Subtração_7" data-name="Subtração 7" d="M-1831.531,212.071h0a109.246,109.246,0,0,0-7.307-16.487l47.409-25.652c2.548,4.667,4.9,9.535,6.986,14.468,1.4,3.3,2.709,6.72,3.9,10.157l-50.985,17.514Z" transform="translate(2173 552)" fill="#7d0602"/>
          <path id="Subtração_8" data-name="Subtração 8" d="M-1827.036,229.622h0a109.085,109.085,0,0,0-4.495-17.55l50.985-17.514a163.327,163.327,0,0,1,5.616,20.473c.382,1.883.741,3.815,1.065,5.741l-53.17,8.851Z" transform="translate(2173 552)"/>
          <path id="Subtração_9" data-name="Subtração 9" d="M-1771.617,247.646H-1825.5a110.586,110.586,0,0,0-1.535-18.024l53.17-8.851a165.35,165.35,0,0,1,2.248,26.874Z" transform="translate(2173 552)" fill="#7d0602"/>
          <path id="Subtração_15" data-name="Subtração 15" d="M-1824.569,368.244l-36.275-39.675a110.5,110.5,0,0,0,12.182-13.21l42.394,33.112a164.449,164.449,0,0,1-13.143,14.84c-1.726,1.725-3.461,3.384-5.157,4.933Z" transform="translate(2173 552)"/>
          <path id="Subtração_16" data-name="Subtração 16" d="M-1845.511,384.53l-29.422-44.961a110.283,110.283,0,0,0,14.089-11l36.275,39.675a164.637,164.637,0,0,1-19,14.993c-.578.392-1.213.815-1.941,1.293h0Z" transform="translate(2173 552)" fill="#7d0602"/>
          <path id="Subtração_2" data-name="Subtração 2" d="M-1891.077,196.015h0a109.1,109.1,0,0,0-17.1-5.854l13.291-52.16a162.27,162.27,0,0,1,23.594,7.9c.73.306,1.391.591,2.02.873Z" transform="translate(2173 503.65)"/>
          <path id="Subtração_3" data-name="Subtração 3" d="M-1875.27,195.785h0a109.593,109.593,0,0,0-15.806-8.545L-1869.269,138a163.137,163.137,0,0,1,23.485,12.706l-29.485,45.078Z" transform="translate(2173 512.426)" fill="#7d0602"/>
          <path id="Subtração_21" data-name="Subtração 21" d="M-1948.42,410.544h0a163.388,163.388,0,0,1-19.277-2.751c-2.592-.528-5.22-1.134-7.81-1.8l13.23-51.916a109.6,109.6,0,0,0,18.223,3.056l-4.365,53.412Z" transform="translate(2173 552)"/>
          <path id="Subtração_22" data-name="Subtração 22" d="M-1975.508,405.991h0a162.164,162.164,0,0,1-22.818-7.705c-.945-.4-1.97-.845-3.133-1.364l21.683-48.964a109.028,109.028,0,0,0,17.5,6.119Z" transform="translate(2173 552)" fill="#7d0602"/>
          <path id="Subtração_23" data-name="Subtração 23" d="M-2001.461,396.92h0a163.886,163.886,0,0,1-23-12.623l29.3-44.79a109.635,109.635,0,0,0,15.386,8.45Z" transform="translate(2173 552)"/>
          <path id="Subtração_24" data-name="Subtração 24" d="M-2023.769,384.3h0c-.5-.33-1.018-.676-1.582-1.058a163.438,163.438,0,0,1-19.648-15.6l36.259-39.33a110.242,110.242,0,0,0,14.274,11.2l-29.3,44.79Z" transform="translate(2172.303 552)" fill="#7d0602"/>
          <path id="Subtração_25" data-name="Subtração 25" d="M-2026.809,367.638h0c-1.467-1.351-2.982-2.807-4.5-4.326A165.078,165.078,0,0,1-2045,347.777l42.231-32.829a110.483,110.483,0,0,0,12.219,13.36Z" transform="translate(2154.112 552)"/>
          <path id="Subtração_17" data-name="Subtração 17" d="M-1870.16,397.8h0l-21.354-49.274a109.545,109.545,0,0,0,16.581-8.956l29.422,44.961a163.384,163.384,0,0,1-24.647,13.268Z" transform="translate(2173 552)"/>
          <path id="Subtração_18" data-name="Subtração 18" d="M-1894.666,406.128l-13.262-52a109.015,109.015,0,0,0,16.414-5.6l21.355,49.273c-.418.188-.821.358-1.124.486a161.982,161.982,0,0,1-23.381,7.843Z" transform="translate(2173 552)" fill="#7d0602"/>
          <path id="Subtração_19" data-name="Subtração 19" d="M-1922.391,410.641l-4.242-53.456a109.645,109.645,0,0,0,18.705-3.057l13.262,52c-2.4.611-4.838,1.17-7.253,1.664a164.577,164.577,0,0,1-20.471,2.849Z" transform="translate(2173 552)"/>
          <path id="Subtração_20" data-name="Subtração 20" d="M-1934.808,411.11c-4.518,0-9.1-.191-13.613-.567l4.365-53.412c2.989.245,6.036.369,9.056.369,2.787,0,5.6-.106,8.367-.315l4.241,53.456C-1926.519,410.953-1930.7,411.11-1934.808,411.11Z" transform="translate(2173 552)" fill="#56a608"/>
        </g>
        <g id="Grupo_192" data-name="Grupo 192" transform="translate(-141.669 968)">
          <text id="_0" data-name="0" transform="translate(1998.449 679)" fill="#fff" font-size="13" font-family="SegoeUI, Segoe UI" letter-spacing="-0.041em"><tspan x="-3.504" y="0">0</tspan></text>
          <text id="_0-2" data-name="0" transform="translate(1998.892 981.65)" fill="#fff" font-size="13" font-family="SegoeUI, Segoe UI" letter-spacing="-0.041em"><tspan x="-3.504" y="0">0</tspan></text>
          <text id="_28" data-name="28" transform="translate(2022.63 681.459) rotate(9)" fill="#fff" font-size="13" font-family="SegoeUI, Segoe UI" letter-spacing="-0.041em"><tspan x="-6.741" y="0">28</tspan></text>
          <text id="_5" data-name="5" transform="matrix(-0.07, 0.998, -0.998, -0.07, 2145.376, 837.062)" fill="#fff" font-size="13" font-family="SegoeUI, Segoe UI" letter-spacing="-0.041em"><tspan x="-3.504" y="0">5</tspan></text>
          <text id="_27" data-name="27" transform="translate(1976.34 970.948) rotate(-170)" fill="#fff" font-size="13" font-family="SegoeUI, Segoe UI" letter-spacing="-0.041em"><tspan x="-6.741" y="0">27</tspan></text>
          <text id="_6" data-name="6" transform="matrix(0.07, -0.998, 0.998, 0.07, 1853.106, 817.044)" fill="#fff" font-size="13" font-family="SegoeUI, Segoe UI" letter-spacing="-0.041em"><tspan x="-3.504" y="0">6</tspan></text>
          <text id="_9" data-name="9" transform="translate(2046.009 687.627) rotate(20)" fill="#fff" font-size="13" font-family="SegoeUI, Segoe UI" letter-spacing="-0.041em"><tspan x="-3.504" y="0">9</tspan></text>
          <text id="_22" data-name="22" transform="matrix(-0.259, 0.966, -0.966, -0.259, 2140.927, 862.396)" fill="#fff" font-size="13" font-family="SegoeUI, Segoe UI" letter-spacing="-0.041em"><tspan x="-6.741" y="0">22</tspan></text>
          <text id="_10" data-name="10" transform="matrix(-0.934, -0.358, 0.358, -0.934, 1952.991, 965.198)" fill="#fff" font-size="13" font-family="SegoeUI, Segoe UI" letter-spacing="-0.041em"><tspan x="-6.741" y="0">10</tspan></text>
          <text id="_21" data-name="21" transform="matrix(0.259, -0.966, 0.966, 0.259, 1856.464, 791.162)" fill="#fff" font-size="13" font-family="SegoeUI, Segoe UI" letter-spacing="-0.041em"><tspan x="-6.741" y="0">21</tspan></text>
          <text id="_26" data-name="26" transform="matrix(0.883, 0.469, -0.469, 0.883, 2068.446, 697.708)" fill="#fff" font-size="13" font-family="SegoeUI, Segoe UI" letter-spacing="-0.041em"><tspan x="-6.741" y="0">26</tspan></text>
          <text id="_34" data-name="34" transform="translate(2133.098 885.119) rotate(113)" fill="#fff" font-size="13" font-family="SegoeUI, Segoe UI" letter-spacing="-0.041em"><tspan x="-6.741" y="0">34</tspan></text>
          <text id="_25" data-name="25" transform="translate(1930.797 954.877) rotate(-151)" fill="#fff" font-size="13" font-family="SegoeUI, Segoe UI" letter-spacing="-0.041em"><tspan x="-6.741" y="0">25</tspan></text>
          <text id="_33" data-name="33" transform="translate(1864.409 767.035) rotate(-67)" fill="#fff" font-size="13" font-family="SegoeUI, Segoe UI" letter-spacing="-0.041em"><tspan x="-6.741" y="0">33</tspan></text>
          <text id="_30" data-name="30" transform="translate(2088.695 710.416) rotate(40)" fill="#fff" font-size="13" font-family="SegoeUI, Segoe UI" letter-spacing="-0.041em"><tspan x="-6.741" y="0">30</tspan></text>
          <text id="_15" data-name="15" transform="matrix(-0.574, 0.819, -0.819, -0.574, 2121.482, 906.036)" fill="#fff" font-size="13" font-family="SegoeUI, Segoe UI" letter-spacing="-0.041em"><tspan x="-6.741" y="0">15</tspan></text>
          <text id="_29" data-name="29" transform="translate(1910.773 941.818) rotate(-139)" fill="#fff" font-size="13" font-family="SegoeUI, Segoe UI" letter-spacing="-0.041em"><tspan x="-6.741" y="0">29</tspan></text>
          <text id="_16" data-name="16" transform="matrix(0.574, -0.819, 0.819, 0.574, 1876.025, 747.094)" fill="#fff" font-size="13" font-family="SegoeUI, Segoe UI" letter-spacing="-0.041em"><tspan x="-6.741" y="0">16</tspan></text>
          <text id="_11" data-name="11" transform="translate(2105.841 726.392) rotate(45)" fill="#fff" font-size="13" font-family="SegoeUI, Segoe UI" letter-spacing="-0.041em"><tspan x="-6.741" y="0">11</tspan></text>
          <text id="_3" data-name="3" transform="matrix(-0.643, 0.766, -0.766, -0.643, 2107.885, 924.484)" fill="#fff" font-size="13" font-family="SegoeUI, Segoe UI" letter-spacing="-0.041em"><tspan x="-3.504" y="0">3</tspan></text>
          <text id="_12" data-name="12" transform="translate(1893.97 925.61) rotate(-134)" fill="#fff" font-size="13" font-family="SegoeUI, Segoe UI" letter-spacing="-0.041em"><tspan x="-6.741" y="0">12</tspan></text>
          <text id="_4" data-name="4" transform="matrix(0.643, -0.766, 0.766, 0.643, 1889.621, 728.646)" fill="#fff" font-size="13" font-family="SegoeUI, Segoe UI" letter-spacing="-0.041em"><tspan x="-3.504" y="0">4</tspan></text>
          <text id="_7" data-name="7" transform="matrix(0.616, 0.788, -0.788, 0.616, 2120.605, 744.737)" fill="#fff" font-size="13" font-family="SegoeUI, Segoe UI" letter-spacing="-0.041em"><tspan x="-3.504" y="0">7</tspan></text>
          <text id="_24" data-name="24" transform="translate(2089.009 941.262) rotate(142)" fill="#fff" font-size="13" font-family="SegoeUI, Segoe UI" letter-spacing="-0.041em"><tspan x="-6.741" y="0">24</tspan></text>
          <text id="_8" data-name="8" transform="matrix(-0.602, -0.799, 0.799, -0.602, 1878.474, 907.904)" fill="#fff" font-size="13" font-family="SegoeUI, Segoe UI" letter-spacing="-0.041em"><tspan x="-3.504" y="0">8</tspan></text>
          <text id="_23" data-name="23" transform="translate(1908.498 710.892) rotate(-38)" fill="#fff" font-size="13" font-family="SegoeUI, Segoe UI" letter-spacing="-0.041em"><tspan x="-6.741" y="0">23</tspan></text>
          <text id="_20" data-name="20" transform="matrix(0.391, 0.921, -0.921, 0.391, 2131.72, 765.733)" fill="#fff" font-size="13" font-family="SegoeUI, Segoe UI" letter-spacing="-0.041em"><tspan x="-6.741" y="0">20</tspan></text>
          <text id="_36" data-name="36" transform="matrix(-0.883, 0.469, -0.469, -0.883, 2069.87, 954.081)" fill="#fff" font-size="13" font-family="SegoeUI, Segoe UI" letter-spacing="-0.041em"><tspan x="-6.741" y="0">36</tspan></text>
          <text id="_19" data-name="19" transform="translate(1865.959 887.145) rotate(-112)" fill="#fff" font-size="13" font-family="SegoeUI, Segoe UI" letter-spacing="-0.041em"><tspan x="-6.741" y="0">19</tspan></text>
          <text id="_35" data-name="35" transform="matrix(0.883, -0.469, 0.469, 0.883, 1927.636, 698.073)" fill="#fff" font-size="13" font-family="SegoeUI, Segoe UI" letter-spacing="-0.041em"><tspan x="-6.741" y="0">35</tspan></text>
          <text id="_32" data-name="32" transform="matrix(0.208, 0.978, -0.978, 0.208, 2140.213, 788.966)" fill="#fff" font-size="13" font-family="SegoeUI, Segoe UI" letter-spacing="-0.041em"><tspan x="-6.741" y="0">32</tspan></text>
          <text id="_13" data-name="13" transform="translate(2047.561 964.49) rotate(159)" fill="#fff" font-size="13" font-family="SegoeUI, Segoe UI" letter-spacing="-0.041em"><tspan x="-6.741" y="0">13</tspan></text>
          <text id="_31" data-name="31" transform="translate(1856.815 863.792) rotate(-101)" fill="#fff" font-size="13" font-family="SegoeUI, Segoe UI" letter-spacing="-0.041em"><tspan x="-6.741" y="0">31</tspan></text>
          <text id="_14" data-name="14" transform="translate(1949.616 687.717) rotate(-17)" fill="#fff" font-size="13" font-family="SegoeUI, Segoe UI" letter-spacing="-0.041em"><tspan x="-6.741" y="0">14</tspan></text>
          <text id="_17" data-name="17" transform="matrix(0.035, 0.999, -0.999, 0.035, 2144.555, 811.828)" fill="#fff" font-size="13" font-family="SegoeUI, Segoe UI" letter-spacing="-0.041em"><tspan x="-6.741" y="0">17</tspan></text>
          <text id="_1" data-name="1" transform="matrix(-0.993, 0.122, -0.122, -0.993, 2025.137, 969.803)" fill="#fff" font-size="13" font-family="SegoeUI, Segoe UI" letter-spacing="-0.041em"><tspan x="-3.504" y="0">1</tspan></text>
          <text id="_18" data-name="18" transform="translate(1852.789 839.446) rotate(-91)" fill="#fff" font-size="13" font-family="SegoeUI, Segoe UI" letter-spacing="-0.041em"><tspan x="-6.741" y="0">18</tspan></text>
          <text id="_2" data-name="2" transform="translate(1972.4 681.379) rotate(-7)" fill="#fff" font-size="13" font-family="SegoeUI, Segoe UI" letter-spacing="-0.041em"><tspan x="-3.504" y="0">2</tspan></text>
        </g>
      </g>
    </g>
  </g>
</svg>
