<svg xmlns="http://www.w3.org/2000/svg" xmlns:xlink="http://www.w3.org/1999/xlink" width="910" height="910" viewBox="0 0 910 910">
  <defs>
    <linearGradient id="linear-gradient" x1="0.885" y1="0.069" x2="0.096" y2="1" gradientUnits="objectBoundingBox">
      <stop offset="0" stop-color="#fff"/>
      <stop offset="0.419" stop-color="#9e7035"/>
      <stop offset="1" stop-color="#713016"/>
    </linearGradient>
    <filter id="Elipse_105" x="207.5" y="207.5" width="495" height="495" filterUnits="userSpaceOnUse">
      <feOffset input="SourceAlpha"/>
      <feGaussianBlur stdDeviation="2.5" result="blur"/>
      <feFlood flood-opacity="0.161"/>
      <feComposite operator="in" in2="blur"/>
      <feComposite in="SourceGraphic"/>
    </filter>
    <linearGradient id="linear-gradient-2" x1="0.885" y1="0.069" x2="0.096" y2="1" gradientUnits="objectBoundingBox">
      <stop offset="0" stop-color="#b7925b"/>
      <stop offset="0.419" stop-color="#9e7035"/>
      <stop offset="1" stop-color="#713016"/>
    </linearGradient>
    <filter id="Elipse_104" x="217.5" y="219.5" width="473" height="473" filterUnits="userSpaceOnUse">
      <feOffset input="SourceAlpha"/>
      <feGaussianBlur stdDeviation="2.5" result="blur-2"/>
      <feFlood flood-opacity="0.161"/>
      <feComposite operator="in" in2="blur-2"/>
      <feComposite in="SourceGraphic"/>
    </filter>
    <radialGradient id="radial-gradient" cx="0" cy="0.628" r="0.872" gradientTransform="matrix(0.999, -0.042, 0.023, 0.548, -0.014, 0.284)" gradientUnits="objectBoundingBox">
      <stop offset="0" stop-color="#bc8f68"/>
      <stop offset="0.488" stop-color="#604126"/>
      <stop offset="1" stop-color="#362110"/>
    </radialGradient>
    <radialGradient id="radial-gradient-2" cx="0.656" cy="0.356" r="0.569" gradientTransform="translate(1.233 -0.281) rotate(101.459)" gradientUnits="objectBoundingBox">
      <stop offset="0" stop-color="#be8b60"/>
      <stop offset="0.358" stop-color="#a5774c"/>
      <stop offset="0.494" stop-color="#9c6f45"/>
      <stop offset="1" stop-color="#362110"/>
    </radialGradient>
    <clipPath id="clip-rouleta-2">
      <rect width="910" height="910"/>
    </clipPath>
  </defs>
  <g id="rouleta-2" clip-path="url(#clip-rouleta-2)">
    <g id="Grupo_276" data-name="Grupo 276" transform="translate(-42)">
      <g id="Grupo_274" data-name="Grupo 274" transform="translate(42 -56)">
        <g id="Grupo_258" data-name="Grupo 258" transform="translate(-2213 -1874)">
          <g id="Grupo_191" data-name="Grupo 191" transform="translate(2428.219 2145.339)">
            <g transform="matrix(1, 0, 0, 1, -215.22, -215.34)" filter="url(#Elipse_105)">
              <circle id="Elipse_105-2" data-name="Elipse 105" cx="240" cy="240" r="240" transform="translate(215 215)" opacity="0.27" fill="url(#linear-gradient)"/>
            </g>
            <g transform="matrix(1, 0, 0, 1, -215.22, -215.34)" filter="url(#Elipse_104)">
              <g id="Elipse_104-2" data-name="Elipse 104" transform="translate(225 227)" stroke="rgba(163,117,74,0.22)" stroke-width="10" fill="url(#linear-gradient-2)">
                <circle cx="229" cy="229" r="229" stroke="none"/>
                <circle cx="229" cy="229" r="224" fill="none"/>
              </g>
            </g>
          </g>
          <g id="Grupo_190" data-name="Grupo 190" transform="translate(2542.909 2269.43)">
            <g id="Grupo_46" data-name="Grupo 46" transform="translate(148.533 95.888)">
              <path id="Polígono_1" data-name="Polígono 1" d="M22.5,0,45,93H0Z" transform="translate(92.558 -0.318) rotate(90)" fill="url(#radial-gradient)"/>
              <circle id="Elipse_97" data-name="Elipse 97" cx="17.697" cy="17.697" r="17.697" transform="translate(65.648 5.793)" fill="url(#radial-gradient-2)"/>
            </g>
            <g id="Grupo_49" data-name="Grupo 49" transform="translate(106.525 103.156) rotate(-90)">
              <path id="Polígono_1-2" data-name="Polígono 1" d="M19.172,0,38.343,97.333H0Z" transform="translate(97.333) rotate(90)" fill="url(#radial-gradient)"/>
              <ellipse id="Elipse_97-2" data-name="Elipse 97" cx="18" cy="17.5" rx="18" ry="17.5" transform="translate(67.586 6.566)" fill="url(#radial-gradient-2)"/>
            </g>
            <g id="Grupo_47" data-name="Grupo 47" transform="translate(105.05 137.075) rotate(180)">
              <path id="Polígono_1-3" data-name="Polígono 1" d="M19.172,0,38.343,97.333H0Z" transform="translate(97.333) rotate(90)" fill="url(#radial-gradient)"/>
              <ellipse id="Elipse_97-3" data-name="Elipse 97" cx="18" cy="20" rx="18" ry="20" transform="translate(68.959 1.505)" fill="url(#radial-gradient-2)"/>
            </g>
            <g id="Grupo_48" data-name="Grupo 48" transform="translate(148.533 127.851) rotate(90)">
              <path id="Polígono_1-4" data-name="Polígono 1" d="M21.5,0,43,96H0Z" transform="translate(95.719 0.442) rotate(90)" fill="url(#radial-gradient)"/>
              <circle id="Elipse_97-4" data-name="Elipse 97" cx="17.697" cy="17.697" r="17.697" transform="translate(69.689 6.614)" fill="url(#radial-gradient-2)"/>
            </g>
            <ellipse id="Elipse_101" data-name="Elipse 101" cx="33" cy="30" rx="33" ry="30" transform="translate(94.091 86.57)" fill="url(#radial-gradient-2)"/>
          </g>
        </g>
      </g>
      <g id="Grupo_275" data-name="Grupo 275" transform="translate(67 -44)">
        <g id="Grupo_271" data-name="Grupo 271" transform="translate(-25 44)">
          <g id="Grupo_268" data-name="Grupo 268">
            <g id="Grupo_267" data-name="Grupo 267">
              <path id="Subtração_39" data-name="Subtração 39" d="M7.954,101.267,0,1.037C8.385.349,16.871,0,25.223,0c8.169,0,16.379.324,24.4.964L41.43,101.253c-5.5-.44-11.1-.663-16.649-.663-5.6,0-11.264.228-16.826.678Z" transform="translate(429.685 147.999)" fill="#56a608"/>
              <path id="Subtração_1" data-name="Subtração 1" d="M33.908,106.364h0A206.164,206.164,0,0,0,0,100.794L8.236,0h.01A310.275,310.275,0,0,1,45.67,5.267c4.3.877,8.754,1.9,13.229,3.028l-24.99,98.069Z" transform="translate(470.994 148.449)" fill="#7d0602"/>
              <path id="Subtração_38" data-name="Subtração 38" d="M24.965,106.4h0L0,8.508C4.638,7.315,9.468,6.2,14.356,5.2A307.55,307.55,0,0,1,50.97,0l8,100.747a205.969,205.969,0,0,0-34,5.651Z" transform="translate(378.633 148.522)" fill="#7d0602"/>
              <g id="Grupo_266" data-name="Grupo 266">
                <path id="Subtração_36" data-name="Subtração 36" d="M55.244,109.111h0L0,24.68A308.413,308.413,0,0,1,45.624,0L85.773,92.639a206.062,206.062,0,0,0-30.529,16.472Z" transform="translate(286.677 172.935)" fill="#7d0602"/>
                <path id="Subtração_37" data-name="Subtração 37" d="M40.15,108.544,0,15.907c.969-.427,1.964-.851,2.926-1.261l.173-.074A305.14,305.14,0,0,1,46.334,0L71.3,97.891a205.073,205.073,0,0,0-31.147,10.652Z" transform="translate(332.3 157.03)"/>
                <path id="Subtração_35" data-name="Subtração 35" d="M68.03,104.446h0L0,30.047A310.055,310.055,0,0,1,35.26,2.268l.16-.107C36.478,1.449,37.572.714,38.657,0L93.9,84.431A207.352,207.352,0,0,0,68.03,104.446Z" transform="translate(248.021 197.615)"/>
                <g id="Grupo_265" data-name="Grupo 265">
                  <path id="Subtração_31" data-name="Subtração 31" d="M99.227,65.071h0L0,48.375c.534-3.25,1.163-6.64,1.867-10.076A305.581,305.581,0,0,1,12.355,0l95.189,32.8a205.093,205.093,0,0,0-8.316,32.27Z" transform="translate(152.361 354.179)"/>
                  <path id="Subtração_28" data-name="Subtração 28" d="M12.345,65.9h0A307.531,307.531,0,0,1,2.217,28.635C1.4,24.62.654,20.539,0,16.506L99.215,0a205.085,205.085,0,0,0,8.259,33.218L12.345,65.9Z" transform="translate(152.012 487.516)" fill="#7d0602"/>
                  <path id="Subtração_29" data-name="Subtração 29" d="M4.012,50.221h0A310.984,310.984,0,0,1,0,.513V0H100.59q0,.333,0,.666a208.112,208.112,0,0,0,2.639,33.05L4.012,50.221Z" transform="translate(148 453.801)"/>
                  <path id="Subtração_30" data-name="Subtração 30" d="M100.59,51.248H0A309.235,309.235,0,0,1,4.361,0l99.228,16.695a207.894,207.894,0,0,0-3,34.553Z" transform="translate(148 402.554)" fill="#7d0602"/>
                  <path id="Subtração_32" data-name="Subtração 32" d="M95.188,80.343h0L0,47.543c2.214-6.409,4.7-12.9,7.4-19.292A307.564,307.564,0,0,1,21.1,0l88.4,48.281A205.358,205.358,0,0,0,95.189,80.342Z" transform="translate(164.716 306.636)" fill="#7d0602"/>
                  <path id="Subtração_26" data-name="Subtração 26" d="M27.553,90.2v0h0c-4.13-5.332-8.08-10.783-11.739-16.2C10.142,65.6,4.821,56.8,0,47.857L88.457,0a206.7,206.7,0,0,0,18.5,28.472Z" transform="translate(184.583 551.867)" fill="#7d0602"/>
                  <path id="Subtração_27" data-name="Subtração 27" d="M20.226,78.989v0h0c-4.578-8.5-8.773-17.245-12.468-25.981C4.9,46.243,2.29,39.407,0,32.688v-.01L95.128,0a205.386,205.386,0,0,0,13.555,31.133Z" transform="translate(164.358 520.734)"/>
                  <path id="Subtração_33" data-name="Subtração 33" d="M88.4,89.3,0,41.017c4.451-8.1,9.357-16.13,14.582-23.869C18.482,11.378,22.68,5.608,27.06,0l79.4,62.02A206.769,206.769,0,0,0,88.4,89.3Z" transform="translate(185.814 265.62)"/>
                  <path id="Subtração_34" data-name="Subtração 34" d="M79.405,99.979,0,37.958A308.966,308.966,0,0,1,24.988,9.7C28.3,6.387,31.718,3.124,35.147,0l68.03,74.4a207.706,207.706,0,0,0-23.772,25.58h0Z" transform="translate(212.875 227.661)" fill="#7d0602"/>
                </g>
                <path id="Subtração_4" data-name="Subtração 4" d="M26.822,105.578h0A207.318,207.318,0,0,0,0,84.755L55.437,0c1.251.809,2.574,1.686,4.166,2.76A307.435,307.435,0,0,1,95.478,31.1L26.823,105.577Z" transform="translate(566.77 197.133)"/>
                <path id="Subtração_2" data-name="Subtração 2" d="M32.147,109.08h0A204.939,204.939,0,0,0,0,98.07L24.989,0A305.221,305.221,0,0,1,69.351,14.86c1.372.576,2.613,1.113,3.8,1.642l-41,92.578Z" transform="translate(504.903 156.742)"/>
                <path id="Subtração_3" data-name="Subtração 3" d="M29.72,108.646h0A206.03,206.03,0,0,0,0,92.578L41,0A306.484,306.484,0,0,1,85.157,23.89L29.72,108.645Z" transform="translate(537.05 173.243)" fill="#7d0602"/>
              </g>
            </g>
          </g>
          <g id="Grupo_270" data-name="Grupo 270">
            <path id="Subtração_24" data-name="Subtração 24" d="M39.917,105.268h0c-.959-.633-1.959-1.3-2.974-1.991A307.331,307.331,0,0,1,0,73.948L68.171,0A207.255,207.255,0,0,0,95.01,21.054L39.918,105.268Z" transform="translate(246.339 605.458)" fill="#7d0602"/>
            <path id="Subtração_25" data-name="Subtração 25" d="M34.2,99.067h0c-2.769-2.549-5.617-5.287-8.466-8.135A310,310,0,0,1,0,61.724L79.4,0a207.724,207.724,0,0,0,22.973,25.118Z" transform="translate(212.137 580.339)"/>
            <g id="Grupo_269" data-name="Grupo 269">
              <path id="Subtração_21" data-name="Subtração 21" d="M50.93,106.17h0A307.272,307.272,0,0,1,14.685,101C9.807,100,4.866,98.863,0,97.61L24.874,0A205.943,205.943,0,0,0,59.136,5.745L50.93,106.169Z" transform="translate(378.305 653.905)"/>
              <path id="Subtração_22" data-name="Subtração 22" d="M48.794,109.117h0a305.119,305.119,0,0,1-42.9-14.49C4.068,93.857,2.141,93.018,0,92.06L40.767,0a205.007,205.007,0,0,0,32.9,11.505L48.794,109.116Z" transform="translate(329.51 642.4)" fill="#7d0602"/>
              <path id="Subtração_23" data-name="Subtração 23" d="M43.253,107.95h0A308.314,308.314,0,0,1,0,84.213L55.091,0A206.161,206.161,0,0,0,84.021,15.888L43.253,107.949Z" transform="translate(286.257 626.512)"/>
              <g id="Grupo_264" data-name="Grupo 264">
                <g id="Grupo_263" data-name="Grupo 263">
                  <path id="Subtração_13" data-name="Subtração 13" d="M88.82,79.67,0,31.155A205.329,205.329,0,0,0,13.653,0l95.732,32.989V33c-2.24,6.528-4.761,13.111-7.492,19.569-3.877,9.169-8.276,18.287-13.073,27.1Z" transform="translate(635.646 521.172)"/>
                  <path id="Subtração_14" data-name="Subtração 14" d="M79.706,91.04,0,28.785A206.7,206.7,0,0,0,18.848,0L107.67,48.516C103.014,57.07,97.9,65.487,92.462,73.535c-4,5.919-8.291,11.808-12.755,17.505Z" transform="translate(616.796 552.326)" fill="#7d0602"/>
                  <g id="Grupo_262" data-name="Grupo 262">
                    <path id="Subtração_11" data-name="Subtração 11" d="M99.889,50.622,0,33.808c.23-1.419.45-2.878.654-4.337A208.02,208.02,0,0,0,2.558,6.946c.063-2.086.095-4.2.095-6.28,0-.221,0-.442,0-.663L103.964,0V.513a311.17,311.17,0,0,1-4.075,50.108h0Z" transform="translate(657.692 453.801)"/>
                    <path id="Subtração_12" data-name="Subtração 12" d="M95.732,66.552h0L0,33.562A205.168,205.168,0,0,0,8.393,0l99.889,16.814c-.646,3.918-1.372,7.864-2.155,11.729a304.965,304.965,0,0,1-10.394,38.01Z" transform="translate(649.299 487.61)" fill="#7d0602"/>
                    <path id="Subtração_5" data-name="Subtração 5" d="M23.041,99.38h0A207.675,207.675,0,0,0,0,74.474L68.656,0c3.191,2.918,6.4,5.988,9.533,9.122a311.012,311.012,0,0,1,24.854,28.066l-80,62.191Z" transform="translate(593.594 228.236)" fill="#7d0602"/>
                    <path id="Subtração_6" data-name="Subtração 6" d="M18.633,90.487h0A206.848,206.848,0,0,0,0,62.19L80,0c4.407,5.64,8.653,11.474,12.622,17.342,5.451,8.082,10.547,16.465,15.148,24.916L18.633,90.487Z" transform="translate(616.634 265.426)"/>
                    <path id="Subtração_7" data-name="Subtração 7" d="M13.738,79.231h0A205.383,205.383,0,0,0,0,48.229L89.138,0c4.788,8.772,9.207,17.924,13.134,27.2,2.633,6.223,5.1,12.648,7.327,19.1l-95.86,32.93Z" transform="translate(635.268 307.684)" fill="#7d0602"/>
                    <path id="Subtração_8" data-name="Subtração 8" d="M8.451,65.928h0A205.079,205.079,0,0,0,0,32.93L95.86,0a307.078,307.078,0,0,1,10.56,38.492c.721,3.559,1.395,7.191,2,10.8L8.451,65.928Z" transform="translate(649.006 353.984)"/>
                    <path id="Subtração_9" data-name="Subtração 9" d="M104.2,50.53H2.886A207.9,207.9,0,0,0,0,16.641L99.968,0A310.793,310.793,0,0,1,104.2,50.53Z" transform="translate(657.458 403.271)" fill="#7d0602"/>
                  </g>
                  <path id="Subtração_15" data-name="Subtração 15" d="M68.2,99.434,0,24.837A207.724,207.724,0,0,0,22.9,0L102.61,62.255A309.018,309.018,0,0,1,77.9,90.157c-3.233,3.231-6.5,6.352-9.7,9.276Z" transform="translate(593.892 581.112)"/>
                </g>
                <path id="Subtração_16" data-name="Subtração 16" d="M55.318,105.217,0,20.683A207.346,207.346,0,0,0,26.49,0l68.2,74.6a309.3,309.3,0,0,1-35.722,28.189c-1.069.726-2.229,1.5-3.651,2.431Z" transform="translate(567.402 605.949)" fill="#7d0602"/>
                <path id="Subtração_17" data-name="Subtração 17" d="M40.15,109.482h0L0,16.84A205.978,205.978,0,0,0,31.175,0L86.493,84.534a307.138,307.138,0,0,1-46.342,24.948Z" transform="translate(536.228 626.632)"/>
              </g>
              <path id="Subtração_18" data-name="Subtração 18" d="M24.936,108.3h0L0,10.534A204.959,204.959,0,0,0,30.86,0L71.011,92.642c-.757.34-1.493.652-2.114.913A304.5,304.5,0,0,1,24.936,108.3Z" transform="translate(505.367 643.47)" fill="#7d0602"/>
              <path id="Subtração_19" data-name="Subtração 19" d="M7.975,106.255,0,5.748A206.162,206.162,0,0,0,35.17,0L60.1,97.768c-4.518,1.15-9.106,2.2-13.638,3.13a309.434,309.434,0,0,1-38.492,5.357h0Z" transform="translate(470.198 654.004)"/>
              <path id="Subtração_20" data-name="Subtração 20" d="M25.593,101.491c-8.486,0-17.1-.359-25.592-1.067L8.208,0c5.622.46,11.35.694,17.026.694C30.474.695,35.767.5,40.964.1l7.976,100.506C41.165,101.195,33.311,101.491,25.593,101.491Z" transform="translate(429.233 659.65)" fill="#56a608"/>
            </g>
          </g>
        </g>
        <g id="Grupo_272" data-name="Grupo 272" transform="translate(-22.901 43.36)">
          <text id="_0" data-name="0" transform="translate(453.533 173.64)" fill="#fff" font-size="23" font-family="SegoeUI, Segoe UI" letter-spacing="-0.041em"><tspan x="-6.199" y="0">0</tspan></text>
          <text id="_0-2" data-name="0" transform="translate(453.366 754.673)" fill="#fff" font-size="23" font-family="SegoeUI, Segoe UI" letter-spacing="-0.041em"><tspan x="-6.199" y="0">0</tspan></text>
          <text id="_28" data-name="28" transform="translate(501.577 176.098) rotate(9)" fill="#fff" font-size="23" font-family="SegoeUI, Segoe UI" letter-spacing="-0.041em"><tspan x="-11.927" y="0">28</tspan></text>
          <text id="_5" data-name="5" transform="matrix(-0.07, 0.998, -0.998, -0.07, 731.726, 475.719)" fill="#fff" font-size="23" font-family="SegoeUI, Segoe UI" letter-spacing="-0.041em"><tspan x="-6.199" y="0">5</tspan></text>
          <text id="_27" data-name="27" transform="translate(407.398 730.376) rotate(-170)" fill="#fff" font-size="23" font-family="SegoeUI, Segoe UI" letter-spacing="-0.041em"><tspan x="-11.927" y="0">27</tspan></text>
          <text id="_6" data-name="6" transform="matrix(0.07, -0.998, 0.998, 0.07, 174.359, 430.932)" fill="#fff" font-size="23" font-family="SegoeUI, Segoe UI" letter-spacing="-0.041em"><tspan x="-6.199" y="0">6</tspan></text>
          <text id="_9" data-name="9" transform="translate(544.498 188.42) rotate(20)" fill="#fff" font-size="23" font-family="SegoeUI, Segoe UI" letter-spacing="-0.041em"><tspan x="-6.199" y="0">9</tspan></text>
          <text id="_22" data-name="22" transform="matrix(-0.259, 0.966, -0.966, -0.259, 723.514, 523.997)" fill="#fff" font-size="23" font-family="SegoeUI, Segoe UI" letter-spacing="-0.041em"><tspan x="-11.927" y="0">22</tspan></text>
          <text id="_10" data-name="10" transform="matrix(-0.934, -0.358, 0.358, -0.934, 362.196, 720.712)" fill="#fff" font-size="23" font-family="SegoeUI, Segoe UI" letter-spacing="-0.041em"><tspan x="-11.927" y="0">10</tspan></text>
          <text id="_21" data-name="21" transform="matrix(0.259, -0.966, 0.966, 0.259, 181.521, 385.625)" fill="#fff" font-size="23" font-family="SegoeUI, Segoe UI" letter-spacing="-0.041em"><tspan x="-11.927" y="0">21</tspan></text>
          <text id="_26" data-name="26" transform="matrix(0.883, 0.469, -0.469, 0.883, 586.255, 207.424)" fill="#fff" font-size="23" font-family="SegoeUI, Segoe UI" letter-spacing="-0.041em"><tspan x="-11.927" y="0">26</tspan></text>
          <text id="_34" data-name="34" transform="translate(708.887 566.948) rotate(113)" fill="#fff" font-size="23" font-family="SegoeUI, Segoe UI" letter-spacing="-0.041em"><tspan x="-11.927" y="0">34</tspan></text>
          <text id="_25" data-name="25" transform="translate(320.231 699.377) rotate(-151)" fill="#fff" font-size="23" font-family="SegoeUI, Segoe UI" letter-spacing="-0.041em"><tspan x="-11.927" y="0">25</tspan></text>
          <text id="_33" data-name="33" transform="translate(196.364 342.034) rotate(-67)" fill="#fff" font-size="23" font-family="SegoeUI, Segoe UI" letter-spacing="-0.041em"><tspan x="-11.927" y="0">33</tspan></text>
          <text id="_30" data-name="30" transform="translate(625.691 232.269) rotate(40)" fill="#fff" font-size="23" font-family="SegoeUI, Segoe UI" letter-spacing="-0.041em"><tspan x="-11.927" y="0">30</tspan></text>
          <text id="_15" data-name="15" transform="matrix(-0.574, 0.819, -0.819, -0.574, 687.125, 606.634)" fill="#fff" font-size="23" font-family="SegoeUI, Segoe UI" letter-spacing="-0.041em"><tspan x="-11.927" y="0">15</tspan></text>
          <text id="_29" data-name="29" transform="translate(280.217 676.864) rotate(-139)" fill="#fff" font-size="23" font-family="SegoeUI, Segoe UI" letter-spacing="-0.041em"><tspan x="-11.927" y="0">29</tspan></text>
          <text id="_16" data-name="16" transform="matrix(0.574, -0.819, 0.819, 0.574, 218.126, 302.184)" fill="#fff" font-size="23" font-family="SegoeUI, Segoe UI" letter-spacing="-0.041em"><tspan x="-11.927" y="0">16</tspan></text>
          <text id="_11" data-name="11" transform="translate(662.082 264.31) rotate(45)" fill="#fff" font-size="23" font-family="SegoeUI, Segoe UI" letter-spacing="-0.041em"><tspan x="-11.927" y="0">11</tspan></text>
          <text id="_3" data-name="3" transform="matrix(-0.643, 0.766, -0.766, -0.643, 657.802, 644.198)" fill="#fff" font-size="23" font-family="SegoeUI, Segoe UI" letter-spacing="-0.041em"><tspan x="-6.199" y="0">3</tspan></text>
          <text id="_12" data-name="12" transform="translate(248.472 643.383) rotate(-134)" fill="#fff" font-size="23" font-family="SegoeUI, Segoe UI" letter-spacing="-0.041em"><tspan x="-11.927" y="0">12</tspan></text>
          <text id="_4" data-name="4" transform="matrix(0.643, -0.766, 0.766, 0.643, 247.449, 263.619)" fill="#fff" font-size="23" font-family="SegoeUI, Segoe UI" letter-spacing="-0.041em"><tspan x="-6.199" y="0">4</tspan></text>
          <text id="_7" data-name="7" transform="matrix(0.616, 0.788, -0.788, 0.616, 688.833, 299.546)" fill="#fff" font-size="23" font-family="SegoeUI, Segoe UI" letter-spacing="-0.041em"><tspan x="-6.199" y="0">7</tspan></text>
          <text id="_24" data-name="24" transform="translate(626.05 673.385) rotate(142)" fill="#fff" font-size="23" font-family="SegoeUI, Segoe UI" letter-spacing="-0.041em"><tspan x="-11.927" y="0">24</tspan></text>
          <text id="_8" data-name="8" transform="translate(218.896 608.174) rotate(-121)" fill="#fff" font-size="23" font-family="SegoeUI, Segoe UI" letter-spacing="-0.041em"><tspan x="-6.199" y="0">8</tspan></text>
          <text id="_23" data-name="23" transform="translate(282.201 233.598) rotate(-38)" fill="#fff" font-size="23" font-family="SegoeUI, Segoe UI" letter-spacing="-0.041em"><tspan x="-11.927" y="0">23</tspan></text>
          <text id="_20" data-name="20" transform="matrix(0.391, 0.921, -0.921, 0.391, 711.388, 339.45)" fill="#fff" font-size="23" font-family="SegoeUI, Segoe UI" letter-spacing="-0.041em"><tspan x="-11.927" y="0">20</tspan></text>
          <text id="_36" data-name="36" transform="matrix(-0.883, 0.469, -0.469, -0.883, 586.983, 700.782)" fill="#fff" font-size="23" font-family="SegoeUI, Segoe UI" letter-spacing="-0.041em"><tspan x="-11.927" y="0">36</tspan></text>
          <text id="_19" data-name="19" transform="matrix(-0.438, -0.899, 0.899, -0.438, 197.89, 567.274)" fill="#fff" font-size="23" font-family="SegoeUI, Segoe UI" letter-spacing="-0.041em"><tspan x="-11.927" y="0">19</tspan></text>
          <text id="_35" data-name="35" transform="matrix(0.883, -0.469, 0.469, 0.883, 320.268, 207.2)" fill="#fff" font-size="23" font-family="SegoeUI, Segoe UI" letter-spacing="-0.041em"><tspan x="-11.927" y="0">35</tspan></text>
          <text id="_32" data-name="32" transform="matrix(0.208, 0.978, -0.978, 0.208, 725.646, 385.306)" fill="#fff" font-size="23" font-family="SegoeUI, Segoe UI" letter-spacing="-0.041em"><tspan x="-11.927" y="0">32</tspan></text>
          <text id="_13" data-name="13" transform="translate(547.95 717.548) rotate(159)" fill="#fff" font-size="23" font-family="SegoeUI, Segoe UI" letter-spacing="-0.041em"><tspan x="-11.927" y="0">13</tspan></text>
          <text id="_31" data-name="31" transform="translate(181.649 523.63) rotate(-102)" fill="#fff" font-size="23" font-family="SegoeUI, Segoe UI" letter-spacing="-0.041em"><tspan x="-11.927" y="0">31</tspan></text>
          <text id="_14" data-name="14" transform="translate(361.743 188.426) rotate(-17)" fill="#fff" font-size="23" font-family="SegoeUI, Segoe UI" letter-spacing="-0.041em"><tspan x="-11.927" y="0">14</tspan></text>
          <text id="_17" data-name="17" transform="matrix(0.035, 0.999, -0.999, 0.035, 730.038, 428.495)" fill="#fff" font-size="23" font-family="SegoeUI, Segoe UI" letter-spacing="-0.041em"><tspan x="-11.927" y="0">17</tspan></text>
          <text id="_1" data-name="1" transform="matrix(-0.993, 0.122, -0.122, -0.993, 500.901, 731.847)" fill="#fff" font-size="23" font-family="SegoeUI, Segoe UI" letter-spacing="-0.041em"><tspan x="-6.199" y="0">1</tspan></text>
          <text id="_18" data-name="18" transform="matrix(-0.087, -0.996, 0.996, -0.087, 173.852, 476.149)" fill="#fff" font-size="23" font-family="SegoeUI, Segoe UI" letter-spacing="-0.041em"><tspan x="-11.927" y="0">18</tspan></text>
          <text id="_2" data-name="2" transform="translate(407.407 177.308) rotate(-7)" fill="#fff" font-size="23" font-family="SegoeUI, Segoe UI" letter-spacing="-0.041em"><tspan x="-6.199" y="0">2</tspan></text>
        </g>
      </g>
    </g>
  </g>
</svg>
